<svg xmlns="http://www.w3.org/2000/svg" xmlns:xlink="http://www.w3.org/1999/xlink" width="500" zoomAndPan="magnify" viewBox="0 0 375 374.999991" height="500" preserveAspectRatio="xMidYMid meet" version="1.0"><defs><g/><clipPath id="id1"><path d="M 0 158.195312 L 316.5 158.195312 L 316.5 221.945312 L 0 221.945312 Z M 0 158.195312 " clip-rule="nonzero"/></clipPath></defs><g clip-path="url(#id1)"><path fill="#d9eeff" d="M 0 158.195312 L 316.5 158.195312 L 316.5 221.945312 L 0 221.945312 Z M 0 158.195312 " fill-opacity="1" fill-rule="nonzero"/></g><g fill="#000000" fill-opacity="1"><g transform="translate(95.506829, 186.485114)"><g><path d="M 17.1875 0.34375 C 14.28125 0.34375 11.488281 -0.125 8.8125 -1.0625 C 6.144531 -2 4.082031 -3.234375 2.625 -4.765625 L 4.25 -7.953125 C 5.675781 -6.535156 7.5625 -5.382812 9.90625 -4.5 C 12.257812 -3.625 14.6875 -3.1875 17.1875 -3.1875 C 20.695312 -3.1875 23.328125 -3.832031 25.078125 -5.125 C 26.835938 -6.414062 27.71875 -8.085938 27.71875 -10.140625 C 27.71875 -11.703125 27.238281 -12.945312 26.28125 -13.875 C 25.332031 -14.8125 24.164062 -15.53125 22.78125 -16.03125 C 21.40625 -16.539062 19.488281 -17.097656 17.03125 -17.703125 C 14.070312 -18.441406 11.71875 -19.15625 9.96875 -19.84375 C 8.21875 -20.539062 6.710938 -21.597656 5.453125 -23.015625 C 4.203125 -24.429688 3.578125 -26.351562 3.578125 -28.78125 C 3.578125 -30.757812 4.097656 -32.5625 5.140625 -34.1875 C 6.191406 -35.8125 7.800781 -37.109375 9.96875 -38.078125 C 12.132812 -39.046875 14.820312 -39.53125 18.03125 -39.53125 C 20.269531 -39.53125 22.460938 -39.222656 24.609375 -38.609375 C 26.753906 -37.992188 28.613281 -37.144531 30.1875 -36.0625 L 28.78125 -32.765625 C 27.132812 -33.847656 25.378906 -34.660156 23.515625 -35.203125 C 21.648438 -35.742188 19.820312 -36.015625 18.03125 -36.015625 C 14.59375 -36.015625 12.003906 -35.347656 10.265625 -34.015625 C 8.535156 -32.691406 7.671875 -30.984375 7.671875 -28.890625 C 7.671875 -27.328125 8.144531 -26.066406 9.09375 -25.109375 C 10.050781 -24.160156 11.25 -23.429688 12.6875 -22.921875 C 14.125 -22.421875 16.054688 -21.875 18.484375 -21.28125 C 21.359375 -20.570312 23.679688 -19.867188 25.453125 -19.171875 C 27.222656 -18.484375 28.722656 -17.4375 29.953125 -16.03125 C 31.191406 -14.632812 31.8125 -12.742188 31.8125 -10.359375 C 31.8125 -8.378906 31.273438 -6.578125 30.203125 -4.953125 C 29.140625 -3.328125 27.507812 -2.035156 25.3125 -1.078125 C 23.113281 -0.128906 20.40625 0.34375 17.1875 0.34375 Z M 17.1875 0.34375 "/></g></g></g><g fill="#000000" fill-opacity="1"><g transform="translate(129.942019, 186.485114)"><g><path d="M 5.546875 -29.453125 L 9.515625 -29.453125 L 9.515625 0 L 5.546875 0 Z M 7.5625 -35.890625 C 6.738281 -35.890625 6.046875 -36.171875 5.484375 -36.734375 C 4.921875 -37.296875 4.640625 -37.96875 4.640625 -38.75 C 4.640625 -39.5 4.921875 -40.148438 5.484375 -40.703125 C 6.046875 -41.265625 6.738281 -41.546875 7.5625 -41.546875 C 8.382812 -41.546875 9.070312 -41.273438 9.625 -40.734375 C 10.1875 -40.191406 10.46875 -39.550781 10.46875 -38.8125 C 10.46875 -37.988281 10.1875 -37.296875 9.625 -36.734375 C 9.070312 -36.171875 8.382812 -35.890625 7.5625 -35.890625 Z M 7.5625 -35.890625 "/></g></g></g><g fill="#000000" fill-opacity="1"><g transform="translate(145.003919, 186.485114)"><g><path d="M 9.359375 -23.6875 C 10.285156 -25.664062 11.671875 -27.160156 13.515625 -28.171875 C 15.367188 -29.179688 17.660156 -29.6875 20.390625 -29.6875 L 20.390625 -25.8125 L 19.4375 -25.875 C 16.332031 -25.875 13.898438 -24.921875 12.140625 -23.015625 C 10.390625 -21.109375 9.515625 -18.441406 9.515625 -15.015625 L 9.515625 0 L 5.546875 0 L 5.546875 -29.453125 L 9.359375 -29.453125 Z M 9.359375 -23.6875 "/></g></g></g><g fill="#000000" fill-opacity="1"><g transform="translate(167.456779, 186.485114)"><g><path d="M 31.078125 -20.21875 C 33.648438 -19.65625 35.632812 -18.539062 37.03125 -16.875 C 38.4375 -15.21875 39.140625 -13.082031 39.140625 -10.46875 C 39.140625 -7.113281 37.898438 -4.53125 35.421875 -2.71875 C 32.941406 -0.90625 29.273438 0 24.421875 0 L 6.390625 0 L 6.390625 -39.203125 L 23.296875 -39.203125 C 27.660156 -39.203125 31.046875 -38.320312 33.453125 -36.5625 C 35.867188 -34.8125 37.078125 -32.332031 37.078125 -29.125 C 37.078125 -26.957031 36.539062 -25.117188 35.46875 -23.609375 C 34.40625 -22.097656 32.941406 -20.96875 31.078125 -20.21875 Z M 10.53125 -35.78125 L 10.53125 -21.5625 L 23.015625 -21.5625 C 26.191406 -21.5625 28.632812 -22.164062 30.34375 -23.375 C 32.0625 -24.59375 32.921875 -26.359375 32.921875 -28.671875 C 32.921875 -30.984375 32.0625 -32.742188 30.34375 -33.953125 C 28.632812 -35.171875 26.191406 -35.78125 23.015625 -35.78125 Z M 24.359375 -3.421875 C 27.867188 -3.421875 30.519531 -4.015625 32.3125 -5.203125 C 34.101562 -6.398438 35 -8.269531 35 -10.8125 C 35 -15.695312 31.453125 -18.140625 24.359375 -18.140625 L 10.53125 -18.140625 L 10.53125 -3.421875 Z M 24.359375 -3.421875 "/></g></g></g><g fill="#000000" fill-opacity="1"><g transform="translate(209.674889, 186.485114)"><g><path d="M 47.09375 -39.203125 L 47.09375 0 L 43.125 0 L 43.125 -31.359375 L 27.71875 -4.984375 L 25.765625 -4.984375 L 10.359375 -31.1875 L 10.359375 0 L 6.390625 0 L 6.390625 -39.203125 L 9.796875 -39.203125 L 26.828125 -10.140625 L 43.6875 -39.203125 Z M 47.09375 -39.203125 "/></g></g></g><g fill="#000000" fill-opacity="1"><g transform="translate(95.506829, 233.735111)"><g><path d="M 6.390625 -39.203125 L 10.53125 -39.203125 L 10.53125 0 L 6.390625 0 Z M 6.390625 -39.203125 "/></g></g></g><g fill="#000000" fill-opacity="1"><g transform="translate(112.416469, 233.735111)"><g><path d="M 20.546875 -29.6875 C 24.242188 -29.6875 27.179688 -28.609375 29.359375 -26.453125 C 31.546875 -24.304688 32.640625 -21.179688 32.640625 -17.078125 L 32.640625 0 L 28.671875 0 L 28.671875 -16.6875 C 28.671875 -19.75 27.90625 -22.082031 26.375 -23.6875 C 24.84375 -25.289062 22.660156 -26.09375 19.828125 -26.09375 C 16.648438 -26.09375 14.132812 -25.148438 12.28125 -23.265625 C 10.4375 -21.378906 9.515625 -18.773438 9.515625 -15.453125 L 9.515625 0 L 5.546875 0 L 5.546875 -29.453125 L 9.359375 -29.453125 L 9.359375 -24.03125 C 10.429688 -25.820312 11.929688 -27.210938 13.859375 -28.203125 C 15.785156 -29.191406 18.015625 -29.6875 20.546875 -29.6875 Z M 20.546875 -29.6875 "/></g></g></g><g fill="#000000" fill-opacity="1"><g transform="translate(150.323178, 233.735111)"><g><path d="M 17.75 0.28125 C 14.84375 0.28125 12.238281 -0.351562 9.9375 -1.625 C 7.644531 -2.894531 5.84375 -4.675781 4.53125 -6.96875 C 3.226562 -9.269531 2.578125 -11.859375 2.578125 -14.734375 C 2.578125 -17.609375 3.226562 -20.179688 4.53125 -22.453125 C 5.84375 -24.734375 7.644531 -26.507812 9.9375 -27.78125 C 12.238281 -29.050781 14.84375 -29.6875 17.75 -29.6875 C 20.289062 -29.6875 22.554688 -29.191406 24.546875 -28.203125 C 26.546875 -27.210938 28.125 -25.765625 29.28125 -23.859375 L 26.3125 -21.84375 C 25.34375 -23.300781 24.113281 -24.390625 22.625 -25.109375 C 21.132812 -25.835938 19.507812 -26.203125 17.75 -26.203125 C 15.625 -26.203125 13.710938 -25.726562 12.015625 -24.78125 C 10.316406 -23.832031 8.988281 -22.476562 8.03125 -20.71875 C 7.082031 -18.96875 6.609375 -16.972656 6.609375 -14.734375 C 6.609375 -12.453125 7.082031 -10.441406 8.03125 -8.703125 C 8.988281 -6.972656 10.316406 -5.628906 12.015625 -4.671875 C 13.710938 -3.722656 15.625 -3.25 17.75 -3.25 C 19.507812 -3.25 21.132812 -3.601562 22.625 -4.3125 C 24.113281 -5.019531 25.34375 -6.101562 26.3125 -7.5625 L 29.28125 -5.546875 C 28.125 -3.640625 26.535156 -2.191406 24.515625 -1.203125 C 22.503906 -0.210938 20.25 0.28125 17.75 0.28125 Z M 17.75 0.28125 "/></g></g></g><g fill="#000000" fill-opacity="1"><g transform="translate(181.846774, 233.735111)"><g><path d="M 5.9375 0.28125 C 5.113281 0.28125 4.410156 -0.015625 3.828125 -0.609375 C 3.253906 -1.210938 2.96875 -1.941406 2.96875 -2.796875 C 2.96875 -3.660156 3.253906 -4.378906 3.828125 -4.953125 C 4.410156 -5.535156 5.113281 -5.828125 5.9375 -5.828125 C 6.757812 -5.828125 7.46875 -5.535156 8.0625 -4.953125 C 8.65625 -4.378906 8.953125 -3.660156 8.953125 -2.796875 C 8.953125 -1.941406 8.65625 -1.210938 8.0625 -0.609375 C 7.46875 -0.015625 6.757812 0.28125 5.9375 0.28125 Z M 5.9375 0.28125 "/></g></g></g><path stroke-linecap="butt" transform="matrix(0.000000000000000138, 2.255954, -2.25, 0.000000000000000138, 85.234679, 134.64777)" fill="none" stroke-linejoin="miter" d="M 0.00029608 0.000135068 L 49.205159 0.000135068 " stroke="#000000" stroke-width="1" stroke-opacity="1" stroke-miterlimit="4"/><path stroke-linecap="butt" transform="matrix(2.244873, 0, 0, 2.25, 84.111489, 245.356594)" fill="none" stroke-linejoin="miter" d="M 0.000798563 -0.000500239 L 43.433093 -0.000500239 " stroke="#000000" stroke-width="1" stroke-opacity="1" stroke-miterlimit="4"/></svg>